# xmcd
#
# Track frame offsets:
#	150
#	24122
#	40488
#	63810
#	81961
#	102391
#	122406
#	137312
#	158432
#	175752
#	193822
#	214326
#	234182
#	253073
#
# Disc length: 3609 seconds
# Revision: 0
# Processed by: cddbd v1.5.2PL0 Copyright (c) Steve Scherf et al.
# Submitted via: dBpowerAMP V12.0
#
DISCID=ad0e170e
DTITLE=The Dorothy-Jane Band - Woman On The Run
DYEAR=2013
DGENRE=Blues Female
TTITLE0=Tangled and Dark
TTITLE1=Let the Good Times Roll
TTITLE2=Woman on the Run
TTITLE3=The Same Old Blues
TTITLE4=Boom Bam Bop
TTITLE5=Mango Ice Cream
TTITLE6=Shake Don't Stir
TTITLE7=I Just Want to Make Love to You
TTITLE8=Daddy Can't Do It
TTITLE9=I Jagged the Joker
TTITLE10=When I Was Young
TTITLE11=The Blind Hotel
TTITLE12=I Will What I Will
TTITLE13=Somebody Stole My Lightning
EXTD=
EXTT0=
EXTT1=
EXTT2=
EXTT3=
EXTT4=
EXTT5=
EXTT6=
EXTT7=
EXTT8=
EXTT9=
EXTT10=
EXTT11=
EXTT12=
EXTT13=
PLAYORDER=
